<svg xmlns="http://www.w3.org/2000/svg" width="160.762" height="162.811" viewBox="0 0 160.762 162.811">
  <path id="Trazado_318" data-name="Trazado 318" d="M5112.162,4466.762c-14.084-27.464-44.74-52.4-79.689-52.4-35.2,0-65.765,25.242-79.691,52.4a6.283,6.283,0,0,0,0,5.73c14.083,27.461,44.736,52.4,79.691,52.4,39.576,0,68.746-31.059,79.689-52.4A6.3,6.3,0,0,0,5112.162,4466.762Zm-79.689,45.566c-28.507,0-52.432-18.932-66.868-42.7,14.272-23.506,38.126-42.7,66.868-42.7,28.616,0,52.508,19.072,66.862,42.7-14.5,23.872-38.524,42.7-66.862,42.7Zm-78.4-115.341a6.273,6.273,0,0,1,8.865-.466l13.985,12.594a6.281,6.281,0,1,1-8.407,9.334l-13.981-12.595A6.275,6.275,0,0,1,4954.071,4396.988Zm72.12-3.51v-25.122a6.28,6.28,0,0,1,12.56,0v25.122a6.28,6.28,0,0,1-12.56,0Zm-39.816-13.987a6.28,6.28,0,0,1,11.474-5.107l9.607,21.572a6.28,6.28,0,0,1-11.474,5.107Zm101.179,38.492a6.277,6.277,0,0,1,.467-8.867L5102,4396.522a6.282,6.282,0,0,1,8.411,9.333l-13.987,12.595a6.289,6.289,0,0,1-8.87-.467Zm-30.065-22.027,9.6-21.572a6.279,6.279,0,0,1,11.473,5.107l-9.606,21.572a6.278,6.278,0,0,1-11.471-5.107Zm-25.016,42.821a30.852,30.852,0,1,0,30.85,30.852,30.885,30.885,0,0,0-30.85-30.852Zm0,49.142a18.29,18.29,0,1,1,18.288-18.29,18.31,18.31,0,0,1-18.288,18.29Z" transform="translate(-4952.09 -4362.08)" fill="#fbfbfb"/>
</svg>
